<?xml version="1.0" encoding="iso-8859-1"?>
<!-- Generator: Adobe Illustrator 19.0.0, SVG Export Plug-In . SVG Version: 6.00 Build 0)  -->
<svg version="1.1" id="Capa_1" xmlns="http://www.w3.org/2000/svg" xmlns:xlink="http://www.w3.org/1999/xlink" x="0px" y="0px"
	 viewBox="0 0 512.002 512.002" style="enable-background:new 0 0 512.002 512.002;" xml:space="preserve">
<g>
	<g>
		<path d="M217.212,23.429c-1.87-1.86-4.44-2.93-7.08-2.93c-2.63,0-5.21,1.07-7.07,2.93c-1.86,1.86-2.93,4.44-2.93,7.07
			s1.07,5.21,2.93,7.07c1.86,1.86,4.44,2.93,7.07,2.93c2.64,0,5.21-1.07,7.08-2.93c1.86-1.86,2.92-4.44,2.92-7.07
			S219.072,25.289,217.212,23.429z"/>
	</g>
</g>
<g>
	<g>
		<path d="M352.962,186.826l-8.285-42.013c-3.378-17.136-11.702-32.713-24.071-45.046L306.44,85.64V30.499c0-5.523-4.477-10-10-10
			s-10,4.477-10,10V89.79c0,2.657,1.058,5.205,2.939,7.081l17.105,17.057c9.542,9.516,15.964,21.533,18.571,34.753l8.285,42.013
			c0.323,1.64-0.019,3.303-0.964,4.682c-0.945,1.379-2.373,2.299-4.019,2.589c-3.185,0.568-6.293-1.461-7.065-4.608l-4.281-17.46
			c-1.509-6.152-7.167-10.069-13.456-9.306c-6.288,0.76-10.852,5.909-10.852,12.243v81.341c0,3.21-2.612,5.822-5.822,5.822
			c-2.951,0-5.39-2.208-5.766-5.057v-42.475c0-5.523-4.477-10-10-10c-0.01,0-0.019,0.001-0.028,0.001
			c-0.009,0-0.019-0.001-0.028-0.001c-5.523,0-10,4.477-10,10v41.71c0,0.545,0.023,1.085,0.056,1.621v13.322
			c0,3.21-2.612,5.822-5.822,5.822c-3.21,0-5.822-2.612-5.822-5.822V261.79c0.033-0.535,0.056-1.072,0.056-1.615v-41.71
			c0-5.523-4.477-10-10-10c-0.009,0-0.019,0.001-0.028,0.001c-0.009,0-0.019-0.001-0.028-0.001c-5.523,0-10,4.477-10,10v42.472
			c-0.375,2.851-2.815,5.061-5.767,5.061c-3.21,0-5.822-2.612-5.822-5.822v-14.918c0.033-0.535,0.056-1.072,0.056-1.615v-25.178
			c0-5.523-4.477-10-10-10c-0.009,0-0.019,0.001-0.028,0.001c-0.009,0-0.019-0.001-0.028-0.001c-5.523,0-10,4.477-10,10v25.939
			c-0.375,2.851-2.815,5.061-5.767,5.061c-3.21,0-5.822-2.612-5.822-5.822v-35.031v-23.733v-29.164
			c0-18.074,7.048-35.057,19.847-47.819l11.056-11.024c1.881-1.876,2.939-4.424,2.939-7.081V66.16c0-5.523-4.477-10-10-10
			c-5.523,0-10,4.477-10,10v19.48l-8.117,8.093c-16.589,16.542-25.725,38.554-25.725,61.981v29.164v23.733v35.031
			c0,14.238,11.584,25.822,25.822,25.822c2.475,0,4.867-0.357,7.135-1.011c3.459,10.189,13.11,17.543,24.453,17.543
			c2.67,0,5.246-0.407,7.67-1.163c3.847,9.436,13.116,16.106,23.918,16.106c10.802,0,20.074-6.669,23.921-16.105
			c2.424,0.756,5,1.163,7.67,1.163c14.238,0,25.822-11.584,25.822-25.822v-46.583c5.441,3.656,12.237,5.283,19.127,4.07
			c6.982-1.231,13.035-5.131,17.043-10.98S354.333,193.782,352.962,186.826z"/>
	</g>
</g>
<g>
	<g>
		<path d="M249.074,389.195c-1.225-2.122-2.722-4.024-4.436-5.682c7.09-8.092,8.631-20.123,2.961-29.944
			c-1.332-2.307-2.969-4.331-4.831-6.05c2.093-2.689,3.649-5.793,4.557-9.183c1.785-6.663,0.869-13.621-2.58-19.595
			c-5.4-9.353-15.808-14.045-25.901-12.661c-0.568-2.504-1.514-4.936-2.835-7.223c-3.448-5.973-9.017-10.246-15.679-12.031
			c-6.663-1.786-13.621-0.87-19.595,2.58l-40.342,23.291c0.445-6.54-1.541-13.238-6.039-18.598
			c-4.558-5.432-10.961-8.724-18.03-9.271c-7.065-0.541-13.902,1.722-19.241,6.388l-32.242,28.182
			c-13.151,11.495-22.479,26.491-26.976,43.369l-5.15,19.332l-27.713,16c-4.783,2.761-6.422,8.877-3.66,13.66
			c1.852,3.208,5.213,5.002,8.669,5.001c1.696,0,3.416-0.432,4.991-1.341l31.308-18.076c2.301-1.329,3.979-3.518,4.663-6.085
			l6.219-23.343c3.469-13.021,10.666-24.591,20.812-33.459l32.242-28.182c1.259-1.101,2.867-1.635,4.537-1.506
			c1.667,0.129,3.176,0.905,4.251,2.186c2.083,2.481,1.881,6.181-0.458,8.422l-12.98,12.438c-4.574,4.382-5.134,11.239-1.332,16.306
			c3.803,5.067,10.544,6.446,16.029,3.277l70.443-40.67c1.346-0.778,2.915-0.984,4.418-0.582c1.502,0.402,2.758,1.366,3.536,2.713
			c0.777,1.347,0.984,2.916,0.582,4.418c-0.352,1.315-1.154,2.42-2.248,3.202l-36.616,21.14c-4.783,2.761-6.422,8.877-3.66,13.66
			c0.005,0.008,0.01,0.015,0.015,0.023s0.008,0.017,0.013,0.025c2.761,4.783,8.876,6.421,13.66,3.66l36.123-20.855
			c0.47-0.271,0.926-0.561,1.375-0.858l11.538-6.661c2.78-1.605,6.348-0.65,7.954,2.131c1.605,2.78,0.649,6.348-2.131,7.954
			l-11.543,6.664c-0.479,0.239-0.956,0.488-1.426,0.759l-36.123,20.855c-4.783,2.761-6.422,8.877-3.66,13.66
			c0.375,0.647,0.833,1.256,1.341,1.805c1.918,2.089,4.6,3.245,7.356,3.245c1.696,0,3.416-0.432,4.991-1.341l36.781-21.236
			c2.656-1.101,5.79-0.094,7.267,2.463c1.605,2.78,0.649,6.348-2.131,7.954l-12.914,7.456c-0.482,0.24-0.961,0.491-1.432,0.762
			l-21.805,12.589c-4.783,2.761-6.422,8.877-3.66,13.66c1.78,3.069,5.143,5.05,8.697,5.05c1.696,0,3.416-0.432,4.991-1.341
			l22.467-12.971c1.178-0.49,2.475-0.584,3.728-0.248c1.502,0.403,2.757,1.366,3.535,2.713c1.605,2.78,0.649,6.348-2.131,7.954
			l-32.049,18.503l-44.099,25.461c-15.653,9.037-33.885,11.423-51.336,6.721l-15.075-4.063c-2.567-0.692-5.301-0.333-7.602,0.996
			l-31.308,18.076c-4.783,2.761-6.422,8.877-3.66,13.66c1.852,3.208,5.213,5.002,8.669,5.001c1.696,0,3.416-0.432,4.991-1.341
			l27.713-16l11.067,2.983c22.619,6.094,46.251,3.001,66.54-8.712l25.255-14.581c0,0,0.001,0,0.001-0.001l18.843-10.879l1.711-0.988
			l30.338-17.516C251.954,417.35,256.193,401.526,249.074,389.195z"/>
	</g>
</g>
<g>
	<g>
		<path d="M507,398.097l-27.713-16l-2.951-11.076c-6.031-22.638-20.526-41.556-40.814-53.27l-44.099-25.461l-32.049-18.503
			c-5.974-3.449-12.933-4.365-19.594-2.58c-6.662,1.785-12.231,6.058-15.679,12.031c-1.236,2.14-2.121,4.387-2.689,6.673
			c-3.845-0.772-7.845-0.66-11.744,0.386c-6.662,1.785-12.231,6.058-15.679,12.031c-1.32,2.287-2.266,4.719-2.834,7.222
			c-10.093-1.383-20.501,3.31-25.901,12.662c-5.4,9.353-4.26,20.713,1.985,28.762c-1.884,1.744-3.518,3.779-4.838,6.066
			c-7.119,12.331-2.879,28.155,9.451,35.274l40.342,23.292c-5.885,2.885-10.695,7.955-13.088,14.529
			c-2.425,6.663-2.075,13.854,0.986,20.25c3.062,6.396,8.443,11.179,15.153,13.469l40.526,13.832
			c16.531,5.643,34.183,6.222,51.047,1.678l19.317-5.206l27.713,16c1.575,0.909,3.294,1.342,4.991,1.341
			c3.456,0,6.817-1.793,8.669-5.001c2.762-4.783,1.123-10.899-3.66-13.66l-31.308-18.076c-2.301-1.329-5.036-1.688-7.602-0.995
			l-23.324,6.285c-13.01,3.507-26.629,3.059-39.383-1.294l-40.527-13.832c-1.582-0.54-2.851-1.668-3.573-3.176
			s-0.804-3.204-0.232-4.775c1.107-3.044,4.413-4.717,7.523-3.814l17.261,5.023c6.083,1.772,12.301-1.173,14.788-7
			c2.486-5.826,0.31-12.353-5.176-15.52l-70.443-40.67c-2.78-1.605-3.736-5.173-2.131-7.954c0.778-1.347,2.033-2.31,3.535-2.713
			c1.254-0.336,2.55-0.242,3.727,0.247l36.786,21.238c1.575,0.909,3.294,1.342,4.991,1.341c2.753,0,5.433-1.154,7.351-3.239
			c0.511-0.55,0.97-1.161,1.347-1.811c2.762-4.783,1.123-10.899-3.66-13.66l-36.122-20.855c-0.472-0.272-0.952-0.523-1.435-0.764
			l-11.535-6.659c-2.78-1.605-3.736-5.173-2.131-7.954c0.778-1.347,2.033-2.31,3.536-2.713c1.503-0.402,3.071-0.195,4.417,0.582
			l11.537,6.661c0.449,0.298,0.906,0.587,1.376,0.859l36.122,20.855c1.575,0.909,3.294,1.342,4.991,1.341
			c2.754,0,5.434-1.155,7.352-3.241c0.511-0.549,0.968-1.16,1.346-1.809c2.762-4.783,1.123-10.899-3.66-13.66l-36.617-21.141
			c-1.093-0.782-1.894-1.887-2.247-3.202c-0.402-1.502-0.196-3.071,0.582-4.418s2.033-2.311,3.536-2.713
			c1.501-0.402,3.071-0.196,4.418,0.582l12.919,7.459c0.446,0.296,0.901,0.584,1.371,0.856l21.805,12.589
			c1.575,0.909,3.294,1.342,4.991,1.341c2.753,0,5.434-1.155,7.351-3.24c0.511-0.551,0.967-1.161,1.346-1.81
			c2.762-4.783,1.123-10.899-3.66-13.66l-22.464-12.97c-2.281-1.75-2.975-4.968-1.5-7.524c0.778-1.347,2.033-2.311,3.535-2.713
			c1.504-0.401,3.071-0.196,4.418,0.582l30.338,17.516l1.711,0.988l18.843,10.879c0,0,0.001,0,0.001,0.001l25.255,14.581
			c15.653,9.038,26.835,23.633,31.488,41.098l4.02,15.086c0.684,2.567,2.362,4.757,4.663,6.085l31.308,18.076
			c1.575,0.909,3.294,1.341,4.991,1.341c3.456,0,6.817-1.793,8.669-5.001C513.422,406.975,511.783,400.859,507,398.097z"/>
	</g>
</g>
<g>
</g>
<g>
</g>
<g>
</g>
<g>
</g>
<g>
</g>
<g>
</g>
<g>
</g>
<g>
</g>
<g>
</g>
<g>
</g>
<g>
</g>
<g>
</g>
<g>
</g>
<g>
</g>
<g>
</g>
</svg>
